<svg width="572" height="136" viewBox="0 0 572 136" fill="none" xmlns="http://www.w3.org/2000/svg">
<path d="M86.714 108.152L82.303 92.7963C82.303 92.7963 90.9827 95.64 97.5281 85.4026C97.5281 85.4026 105.923 80.4261 105.781 76.0183C105.781 76.0183 107.923 72.9021 106.5 70.6982C105.077 68.4943 100.738 69.7029 100.738 69.7029C99.8838 69.5607 89.5677 66.8592 88.5005 65.8639C88.5005 65.8639 88.6547 62.4316 86.4373 60.5319C85.4413 59.6788 84.8721 60.0342 84.8721 60.0342C84.8721 60.0342 84.6587 56.6929 79.6073 55.6976C79.6073 55.6976 83.2555 40.0531 73.2003 34.6501C73.2003 34.6501 71.4928 33.8917 68.647 39.5792C65.8012 45.2666 64.3783 50.6697 63.7143 56.4519L61.5325 57.779C61.5325 57.779 57.2637 53.3238 48.4417 51.5228C39.6197 49.7218 29.849 49.1531 30.5131 52.3759C30.5131 52.3759 30.7028 61.1915 41.8963 65.6466C51.8567 68.3956 52.5207 67.9216 52.5207 67.9216C52.5207 67.9216 48.252 78.5382 52.5207 83.8465C56.7894 89.1547 64.4731 87.6381 66.7498 93.0411C66.7498 93.0411 71.398 102.331 72.1568 113.99C72.1568 113.99 75.1924 116.36 79.3662 114.559C83.5401 112.758 88.5519 112.75 86.71 108.156L86.714 108.152Z" fill="white"/>
<path d="M68.2714 15.4786C39.3903 15.4786 15.9795 38.8722 15.9795 67.732C15.9795 96.5919 39.3903 119.985 68.2714 119.985C97.1525 119.985 120.563 96.5919 120.563 67.732C120.563 38.8722 97.1525 15.4786 68.2714 15.4786ZM68.2714 112.082C43.7579 112.082 23.8885 92.2236 23.8885 67.732C23.8885 43.2405 43.7618 23.3818 68.2714 23.3818C92.781 23.3818 112.654 43.2405 112.654 67.732C112.654 92.2236 92.781 112.082 68.2714 112.082Z" fill="white"/>
<path d="M9.2603 67.7321C9.2603 64.3196 9.55279 60.9782 10.1061 57.7277L1.60031 55.4132C0.865145 59.4063 0.48175 63.5257 0.48175 67.7321C0.48175 76.674 2.21691 85.213 5.36707 93.0293L13.0508 88.5702C10.6002 82.0929 9.2603 75.0665 9.2603 67.7321Z" fill="white"/>
<path d="M86.6467 11.6827C97.3541 15.186 106.714 21.6673 113.745 30.1511L121.425 25.696C113.152 15.265 101.868 7.32629 88.8878 3.19104L86.6467 11.6867V11.6827Z" fill="white"/>
<path d="M121.188 41.6092C125.089 49.4808 127.279 58.3516 127.279 67.732C127.279 70.3071 127.113 72.8467 126.793 75.335L135.334 77.6574C135.808 74.4187 136.057 71.1049 136.057 67.732C136.057 56.7481 133.441 46.3725 128.797 37.1975L121.192 41.6092H121.188Z" fill="white"/>
<path d="M43.4101 14.2424C50.9673 10.7312 59.3902 8.76825 68.2715 8.76825C69.9434 8.76825 71.5956 8.83935 73.2319 8.97363L75.5007 0.37927C73.1252 0.126494 70.7142 0.00012207 68.2715 0.00012207C57.8052 0.00012207 47.8923 2.36988 39.0465 6.60387L43.4101 14.2464V14.2424Z" fill="white"/>
<path d="M89.6428 122.711C83.0144 125.286 75.809 126.7 68.2715 126.7C64.2755 126.7 60.3744 126.301 56.6037 125.547L54.3626 134.042C58.8527 134.978 63.5048 135.468 68.2715 135.468C77.394 135.468 86.0935 133.667 94.038 130.405L89.6428 122.715V122.711Z" fill="white"/>
<path d="M13.9637 44.631C17.8728 35.464 24.0427 27.4857 31.7699 21.3994L27.3746 13.7095C17.6949 21.036 10.0468 30.8982 5.42233 42.3086L13.9637 44.631Z" fill="white"/>
<path d="M123.488 88.5822C119.208 99.9017 111.54 109.559 101.722 116.32L106.085 123.963C117.884 116.024 127.049 104.475 131.99 90.8966L123.484 88.5822H123.488Z" fill="white"/>
<path d="M43.5958 121.313C33.7461 116.775 25.3589 109.606 19.3432 100.708L11.7385 105.119C18.9519 115.993 29.2245 124.662 41.331 129.907L43.5998 121.313H43.5958Z" fill="white"/>
<path d="M159.737 95.6792V39.7092H183.017C188.136 39.7092 192.515 41.4866 196.151 45.0373C199.788 48.588 201.606 52.8812 201.606 57.9169C201.606 61.045 200.811 63.9204 199.223 66.5429C197.634 69.1654 195.543 71.2192 192.958 72.7043L209.369 95.6792H193.606L179.136 75.4058H172.911V95.6792H159.733H159.737ZM172.915 63.7189H182.452C184.12 63.7189 185.523 63.1502 186.654 62.0088C187.784 60.8713 188.349 59.5047 188.349 57.913C188.349 56.3213 187.784 54.9587 186.654 53.8172C185.523 52.6797 184.12 52.1071 182.452 52.1071H172.915V63.715V63.7189Z" fill="white"/>
<path d="M277.751 88.0843C272.04 93.7283 265.143 96.5523 257.06 96.5523C248.977 96.5523 242.08 93.7283 236.368 88.0843C230.657 82.4403 227.799 75.643 227.799 67.6925C227.799 59.7419 230.657 52.9565 236.368 47.3401C242.08 41.7238 248.977 38.9116 257.06 38.9116C265.143 38.9116 272.04 41.7198 277.751 47.3401C283.463 52.9604 286.32 59.7419 286.32 67.6925C286.32 75.643 283.463 82.4403 277.751 88.0843ZM257.06 83.5936C261.372 83.5936 265.036 82.0414 268.052 78.941C271.068 75.8405 272.577 72.0923 272.577 67.6925C272.577 63.2926 271.056 59.5444 268.012 56.444C264.969 53.3435 261.317 51.7913 257.06 51.7913C252.803 51.7913 249.163 53.3554 246.147 56.4835C243.127 59.6115 241.621 63.3479 241.621 67.6925C241.621 72.037 243.131 75.8405 246.147 78.941C249.163 82.0414 252.803 83.5936 257.06 83.5936Z" fill="white"/>
<path d="M358.909 88.0843C353.197 93.7283 346.3 96.5523 338.217 96.5523C330.134 96.5523 323.237 93.7283 317.526 88.0843C311.814 82.4403 308.957 75.643 308.957 67.6925C308.957 59.7419 311.814 52.9565 317.526 47.3401C323.237 41.7238 330.134 38.9116 338.217 38.9116C346.3 38.9116 353.197 41.7198 358.909 47.3401C364.62 52.9604 367.478 59.7419 367.478 67.6925C367.478 75.643 364.62 82.4403 358.909 88.0843ZM338.217 83.5936C342.529 83.5936 346.193 82.0414 349.209 78.941C352.225 75.8405 353.735 72.0923 353.735 67.6925C353.735 63.2926 352.213 59.5444 349.169 56.444C346.126 53.3435 342.474 51.7913 338.217 51.7913C333.96 51.7913 330.32 53.3554 327.304 56.4835C324.284 59.6115 322.778 63.3479 322.778 67.6925C322.778 72.037 324.288 75.8405 327.304 78.941C330.32 82.0414 333.96 83.5936 338.217 83.5936Z" fill="white"/>
<path d="M394.311 95.6792V39.7092H419.046C423.52 39.7092 427.37 41.2851 430.607 44.4409C433.84 47.5966 435.457 51.3961 435.457 55.8513C435.457 59.7733 434.054 63.1146 431.255 65.8675C433.41 67.2973 435.121 69.1536 436.39 71.4325C437.655 73.7115 438.291 76.2037 438.291 78.9052C438.291 83.5697 436.619 87.5312 433.279 90.7896C429.935 94.048 425.924 95.6792 421.236 95.6792H394.319H394.311ZM407.489 62.1272H416.461C417.86 62.1272 419.074 61.6256 420.097 60.6185C421.121 59.6113 421.635 58.4186 421.635 57.0401C421.635 55.6617 421.121 54.4847 420.097 53.5013C419.074 52.5218 417.86 52.032 416.461 52.032H407.489V62.1272ZM407.489 83.3564H418.726C420.287 83.3564 421.623 82.7995 422.726 81.6857C423.829 80.5719 424.382 79.2488 424.382 77.7124C424.382 76.176 423.829 74.7857 422.726 73.6957C421.619 72.6095 420.287 72.0645 418.726 72.0645H407.489V83.3525V83.3564Z" fill="white"/>
<path d="M464.555 95.6792V39.7092H503.436V52.032H477.812V62.1272H501.255V72.0645H477.812V83.3525H503.436V95.6753H464.555V95.6792Z" fill="white"/>
<path d="M543.365 95.6792V52.032H528.491V39.7092H571.495V52.032H556.622V95.6792H543.365Z" fill="white"/>
</svg>
